<?xml version="1.0"?>
<svg viewBox="0 0 240 180" xmlns="http://www.w3.org/2000/svg" width="480" height="360">
      <path d="M 60 130
               Q 60 95, 110 90
               Q 165 88, 195 95
               Q 215 100, 215 115
               Q 200 130, 165 130
               L 110 130
               Q 80 132, 60 130 Z" fill="#fff"/>
      <path d="M 60 130
               Q 35 130, 30 110
               Q 25 90, 45 85
               Q 60 85, 55 100
               Q 50 110, 60 115" stroke="#fff" stroke-width="14" fill="none" stroke-linecap="round"/>
      <path d="M 90 90 L 95 80 L 100 90 L 110 80 L 115 90 L 125 78 L 130 90 L 140 80 L 145 90 L 155 80 L 160 90" stroke="#fff" stroke-width="3" fill="none" stroke-linejoin="round"/>
      <path d="M 95 130 Q 90 155, 100 158 L 110 158 Q 115 145, 110 130 Z" fill="#fff"/>
      <path d="M 165 130 Q 160 155, 170 158 L 180 158 Q 185 145, 180 130 Z" fill="#fff"/>
      <path d="M 195 115 Q 210 117, 215 115 Q 210 120, 200 120 Z" fill="#fff"/>
      <circle cx="195" cy="100" r="14" fill="#fff"/>
      <circle cx="195" cy="100" r="9" fill="#7C3AED"/>
      <circle cx="195" cy="100" r="4" fill="#fff"/>
      <circle cx="130" cy="110" r="4" fill="#F59E0B" opacity="0.55"/>
      <circle cx="115" cy="118" r="3" fill="#F59E0B" opacity="0.4"/>
      <circle cx="155" cy="108" r="3" fill="#F59E0B" opacity="0.45"/>
      <circle cx="170" cy="118" r="4" fill="#F59E0B" opacity="0.55"/>
      <circle cx="100" cy="115" r="3" fill="#F59E0B" opacity="0.4"/>
    </svg>
