<?xml version="1.0"?>
<svg viewBox="0 0 240 180" xmlns="http://www.w3.org/2000/svg" width="480" height="360">
      <path d="M 30 110
               Q 60 60, 130 70
               Q 195 75, 215 110
               Q 200 130, 170 130
               L 130 130
               Q 85 132, 60 145
               Q 35 140, 30 110 Z" fill="#fff"/>
      <path d="M 120 70 Q 130 50, 145 60 Q 138 75, 128 75 Z" fill="#fff"/>
      <path d="M 215 110 Q 230 95, 230 110 Q 225 115, 215 115 Z" fill="#fff"/>
      <path d="M 215 110 Q 230 125, 230 115 Q 225 110, 215 110 Z" fill="#fff"/>
      <path d="M 75 125 Q 70 145, 88 142 Q 95 132, 90 125 Z" fill="#fff"/>
      <path d="M 70 130 Q 110 138, 165 130 Q 130 145, 80 142 Z" fill="#0F766E" opacity="0.35"/>
      <circle cx="62" cy="105" r="3.5" fill="#0F766E"/>
      <circle cx="63" cy="104" r="1.3" fill="#fff"/>
      <path d="M 40 115 Q 50 122, 60 118" stroke="#0F766E" stroke-width="2" fill="none" opacity="0.5" stroke-linecap="round"/>
    </svg>
