<?xml version="1.0"?>
<svg viewBox="0 0 240 180" xmlns="http://www.w3.org/2000/svg" width="480" height="360">
      <path d="M 70 145 C 70 115, 90 105, 115 105 L 180 105 C 195 105, 200 115, 200 130 L 200 145 Z" fill="#fff"/>
      <path d="M 95 95
               L 80 60
               L 110 78
               L 145 65
               L 165 50
               L 175 80
               L 200 95
               L 215 110
               L 195 120
               L 165 125
               L 130 125
               L 100 118 Z" fill="#fff"/>
      <path d="M 80 60 L 95 75 L 110 78 Z" fill="#fff"/>
      <path d="M 165 50 L 175 80 L 158 70 Z" fill="#fff"/>
      <path d="M 167 60 L 173 73 L 162 67 Z" fill="#334155" opacity="0.4"/>
      <circle cx="178" cy="92" r="3.5" fill="#334155"/>
      <ellipse cx="212" cy="108" rx="4" ry="3" fill="#334155" opacity="0.7"/>
    </svg>
